<svg width="1024" height="1024" viewBox="0 0 1024 1024" fill="none" xmlns="http://www.w3.org/2000/svg">
<path d="M880 112H144C126.3 112 112 126.3 112 144V880C112 897.7 126.3 912 144 912H880C897.7 912 912 897.7 912 880V144C912 126.3 897.7 112 880 112ZM349.3 793.7H230.6V411.9H349.3V793.7ZM290 359.7C276.393 359.7 263.091 355.665 251.777 348.105C240.463 340.545 231.644 329.8 226.437 317.229C221.23 304.657 219.867 290.824 222.522 277.478C225.177 264.132 231.729 251.873 241.351 242.251C250.973 232.629 263.232 226.077 276.578 223.422C289.924 220.767 303.757 222.13 316.329 227.337C328.9 232.544 339.645 241.363 347.205 252.677C354.765 263.991 358.8 277.293 358.8 290.9C358.7 328.9 327.9 359.7 290 359.7ZM793.7 793.7H675.1V608C675.1 563.7 674.3 506.8 613.4 506.8C551.7 506.8 542.2 555 542.2 604.8V793.7H423.7V411.9H537.5V464.1H539.1C554.9 434.1 593.6 402.4 651.4 402.4C771.6 402.4 793.7 481.5 793.7 584.3V793.7Z" fill="black"/>
</svg>
