<svg width="100" height="100" viewBox="0 0 100 100" fill="none" xmlns="http://www.w3.org/2000/svg">
<path d="M8.33333 29.1665L42.3538 52.9808C45.1087 54.9093 46.4861 55.8735 47.9844 56.2469C49.3079 56.5768 50.6921 56.5768 52.0156 56.2469C53.5138 55.8735 54.8913 54.9093 57.6462 52.9809L91.6667 29.1665M28.3333 83.3332H71.6667C78.6673 83.3332 82.1676 83.3332 84.8415 81.9707C87.1936 80.7723 89.1058 78.8601 90.3042 76.508C91.6667 73.8341 91.6667 70.3338 91.6667 63.3332V36.6665C91.6667 29.6658 91.6667 26.1655 90.3042 23.4916C89.1058 21.1396 87.1936 19.2273 84.8415 18.0289C82.1676 16.6665 78.6673 16.6665 71.6667 16.6665H28.3333C21.3327 16.6665 17.8323 16.6665 15.1584 18.0289C12.8064 19.2273 10.8942 21.1396 9.69575 23.4916C8.33333 26.1655 8.33333 29.6658 8.33333 36.6665V63.3332C8.33333 70.3338 8.33333 73.8341 9.69575 76.508C10.8942 78.8601 12.8064 80.7723 15.1584 81.9707C17.8323 83.3332 21.3327 83.3332 28.3333 83.3332Z" stroke="black" stroke-width="8.08333" stroke-linecap="round" stroke-linejoin="round"/>
</svg>
