<svg width="100" height="100" viewBox="0 0 100 100" fill="none" xmlns="http://www.w3.org/2000/svg">
<path d="M34.9178 36.8885C37.8178 42.9286 41.7711 48.5896 46.7777 53.5961C51.7842 58.6027 57.4453 62.556 63.4853 65.456C64.0049 65.7054 64.2646 65.8302 64.5934 65.926C65.7615 66.2665 67.1959 66.0219 68.1852 65.3135C68.4636 65.1142 68.7017 64.876 69.178 64.3997C70.6347 62.9431 71.3631 62.2147 72.0955 61.7385C74.8575 59.9427 78.4183 59.9427 81.1803 61.7385C81.9127 62.2147 82.6411 62.9431 84.0978 64.3997L84.9097 65.2117C87.1241 67.426 88.2312 68.5332 88.8327 69.7223C90.0288 72.0871 90.0288 74.8799 88.8327 77.2448C88.2312 78.4338 87.1241 79.541 84.9097 81.7554L84.2529 82.4122C82.0461 84.6189 80.9428 85.7223 79.4426 86.565C77.778 87.5001 75.1926 88.1724 73.2834 88.1668C71.5628 88.1616 70.3868 87.8279 68.035 87.1603C55.3958 83.573 43.4693 76.8043 33.5194 66.8544C23.5695 56.9045 16.8009 44.978 13.2135 32.3388C12.546 29.987 12.2122 28.811 12.2071 27.0904C12.2014 25.1812 12.8737 22.5958 13.8088 20.9312C14.6515 19.431 15.7549 18.3277 17.9617 16.1209L18.6185 15.4641C20.8328 13.2497 21.94 12.1426 23.1291 11.5411C25.4939 10.345 28.2867 10.345 30.6515 11.5411C31.8406 12.1426 32.9478 13.2497 35.1621 15.4641L35.9741 16.276C37.4308 17.7327 38.1591 18.4611 38.6353 19.1935C40.4311 21.9555 40.4311 25.5163 38.6353 28.2783C38.1591 29.0107 37.4308 29.7391 35.9741 31.1958C35.4978 31.6721 35.2596 31.9102 35.0603 32.1886C34.3519 33.1779 34.1073 34.6123 34.4478 35.7805C34.5437 36.1092 34.6684 36.3689 34.9178 36.8885Z" stroke="black" stroke-width="6" stroke-linecap="round" stroke-linejoin="round"/>
</svg>
